<?xml version="1.0" encoding="iso-8859-1"?>
<!-- Uploaded to: SVG Repo, www.svgrepo.com, Generator: SVG Repo Mixer Tools -->
<svg version="1.1" id="Layer_1" xmlns="http://www.w3.org/2000/svg" xmlns:xlink="http://www.w3.org/1999/xlink" 
	 viewBox="0 0 416.592 416.592" xml:space="preserve">
<g>
	<path style="fill:#F7CF52;" d="M384.604,203.381l-19.314-13.367l-17.709-77.205c-4.249-18.525-20.735-31.657-39.741-31.657H108.753
		c-19.006,0-35.491,13.132-39.741,31.657l-17.709,77.205l-19.314,13.367c-12.778,8.843-20.403,23.394-20.403,38.933v90.567h393.421
		v-90.567C405.007,226.774,397.381,212.224,384.604,203.381z"/>
	<path style="fill:#76CDCE;" d="M342.719,190.014H73.879l16.58-72.28c1.97-8.58,9.49-14.58,18.3-14.58h199.08
		c8.81,0,16.33,6,18.3,14.58L342.719,190.014z"/>
	<path style="fill:#666666;" d="M33.572,335.163v40.716c0,5.354,4.34,9.694,9.694,9.694h37.147c5.354,0,9.694-4.34,9.694-9.694
		v-40.716"/>
	<path style="fill:#666666;" d="M326.485,335.163v40.716c0,5.354,4.34,9.694,9.694,9.694h37.147c5.354,0,9.694-4.34,9.694-9.694
		v-40.716"/>
	<path style="fill:#4D4D4D;" d="M265.293,335.163v4.935c0,11.986-9.716,21.702-21.702,21.702h-70.59
		c-11.986,0-21.702-9.716-21.702-21.702v-4.935"/>
	<g>
		<path style="fill:#03546D;" d="M171.696,217.414v84.39h-22.9v-59.35C148.796,229.334,158.856,218.544,171.696,217.414z"/>
		<rect x="183.696" y="217.314" style="fill:#03546D;" width="18.6" height="84.49"/>
		<rect x="214.296" y="217.314" style="fill:#03546D;" width="18.59" height="84.49"/>
		<path style="fill:#03546D;" d="M267.796,242.454v59.35h-22.91v-84.39C257.726,218.544,267.796,229.324,267.796,242.454z"/>
	</g>
	<g>
		<circle style="fill:#FFFFFF;" cx="63.666" cy="256.639" r="23"/>
		<circle style="fill:#FFFFFF;" cx="352.923" cy="256.639" r="23"/>
	</g>
	<g>
		<path style="fill:#F4581B;" d="M103.299,285.814c-0.49,0-0.99-0.05-1.47-0.14c-0.48-0.1-0.95-0.24-1.4-0.43
			c-0.46-0.19-0.89-0.42-1.3-0.69c-0.41-0.28-0.79-0.59-1.141-0.93c-0.34-0.35-0.659-0.73-0.93-1.14c-0.27-0.41-0.5-0.85-0.69-1.3
			c-0.189-0.45-0.329-0.92-0.43-1.4c-0.1-0.49-0.149-0.98-0.149-1.47c0-1.97,0.81-3.9,2.199-5.3c0.351-0.35,0.73-0.66,1.141-0.93
			s0.84-0.51,1.3-0.69c0.45-0.19,0.92-0.33,1.4-0.43c0.97-0.19,1.96-0.19,2.93,0c0.479,0.1,0.95,0.24,1.399,0.43
			c0.46,0.18,0.891,0.42,1.301,0.69c0.409,0.27,0.79,0.58,1.14,0.93c1.4,1.4,2.2,3.33,2.2,5.3c0,0.49-0.05,0.98-0.15,1.47
			c-0.1,0.48-0.24,0.95-0.43,1.4c-0.19,0.45-0.42,0.89-0.69,1.3c-0.27,0.41-0.59,0.79-0.93,1.14c-0.35,0.34-0.73,0.65-1.14,0.93
			c-0.41,0.27-0.841,0.5-1.301,0.69c-0.449,0.19-0.92,0.33-1.399,0.43C104.279,285.764,103.779,285.814,103.299,285.814z"/>
		<path style="fill:#F4581B;" d="M313.299,285.814c-0.49,0-0.99-0.05-1.47-0.14c-0.48-0.1-0.95-0.24-1.4-0.43
			c-0.46-0.19-0.89-0.42-1.3-0.69s-0.79-0.59-1.141-0.93c-1.39-1.4-2.199-3.33-2.199-5.31c0-1.97,0.81-3.9,2.199-5.3
			c0.351-0.35,0.73-0.66,1.141-0.93s0.84-0.51,1.3-0.69c0.45-0.19,0.92-0.33,1.4-0.43c0.97-0.2,1.96-0.2,2.93,0
			c0.479,0.1,0.95,0.24,1.399,0.43c0.46,0.18,0.891,0.42,1.301,0.69c0.409,0.27,0.79,0.58,1.14,0.93s0.66,0.73,0.93,1.14
			c0.271,0.41,0.5,0.84,0.69,1.29c0.189,0.46,0.33,0.93,0.43,1.41c0.101,0.48,0.15,0.97,0.15,1.46s-0.05,0.99-0.15,1.47
			s-0.24,0.95-0.43,1.4c-0.19,0.45-0.42,0.89-0.69,1.3c-0.27,0.41-0.58,0.79-0.93,1.14c-0.35,0.34-0.73,0.66-1.14,0.93
			s-0.841,0.5-1.301,0.69c-0.449,0.19-0.92,0.33-1.399,0.43C314.279,285.764,313.779,285.814,313.299,285.814z"/>
	</g>
	<path style="fill:#03546D;" d="M256.154,31.019h-95.716c-7.471,0-13.527,6.056-13.527,13.527v36.605h122.77V44.546
		C269.681,37.075,263.625,31.019,256.154,31.019z"/>
	<path style="fill:#CCCCCC;" d="M399.912,335.163H16.68c-9.212,0-16.68-7.468-16.68-16.68l0,0c0-9.212,7.468-16.68,16.68-16.68
		h383.232c9.212,0,16.68,7.468,16.68,16.68l0,0C416.592,327.695,409.124,335.163,399.912,335.163z"/>
	<g>
		<rect x="229.361" y="42.045" style="fill:#F7CF52;" width="14.041" height="14.041"/>
		<rect x="215.32" y="56.086" style="fill:#F7CF52;" width="14.041" height="14.041"/>
		<rect x="201.28" y="42.045" style="fill:#F7CF52;" width="14.041" height="14.041"/>
		<rect x="187.239" y="56.086" style="fill:#F7CF52;" width="14.041" height="14.041"/>
		<rect x="173.191" y="42.045" style="fill:#F7CF52;" width="14.048" height="14.041"/>
	</g>
	<path style="fill:#96E0DE;" d="M342.719,190.014h-82.56l-86.86-86.86h134.54c8.81,0,16.33,6,18.3,14.58L342.719,190.014z"/>
</g>
</svg>